# xmcd
#
# Track frame offsets:
#	150
#	19150
#	42617
#	67231
#	101415
#	119160
#	140480
#	159107
#	189961
#	212104
#	247765
#	263708
#
# Disc length: 3721 seconds
# Revision: 0
# Processed by: cddbd v1.5.2PL0 Copyright (c) Steve Scherf et al.
# Submitted via: dBpowerAMP V12.0
#
DISCID=aa0e870c
DTITLE=Michael Falzarano - I Got Blues For Ya
DYEAR=2014
DGENRE=Blues
TTITLE0=The Night King Curtis Died
TTITLE1=I Got Blues For Ya
TTITLE2=I Never Think About You
TTITLE3=Snake Box Boogie
TTITLE4=Big Fish
TTITLE5=We Got A Party Going On
TTITLE6=Good Good Lovin'
TTITLE7=Crossroads Avenue
TTITLE8=The Devil's Gone Fishin'
TTITLE9=Death Don't Have No Mercy
TTITLE10=Trouble
TTITLE11=Let's Work Together
EXTD=
EXTT0=
EXTT1=
EXTT2=
EXTT3=
EXTT4=
EXTT5=
EXTT6=
EXTT7=
EXTT8=
EXTT9=
EXTT10=
EXTT11=
PLAYORDER=
